<?xml version="1.0" encoding="utf-8"?>
<!-- Generator: Adobe Illustrator 22.1.0, SVG Export Plug-In . SVG Version: 6.00 Build 0)  -->
<svg version="1.1" xmlns="http://www.w3.org/2000/svg" xmlns:xlink="http://www.w3.org/1999/xlink" x="0px" y="0px"
	 viewBox="0 0 114.5 16.3" style="enable-background:new 0 0 114.5 16.3;" xml:space="preserve">
<g id="Layer_13">
	<path d="M46.1,13l-3.6-9.8h3.1l1.9,5.9l1.9-5.9h3.1l-4.9,13h-3.1L46.1,13z"/>
</g>
<g id="Layer_16">
	<path d="M31.9,3c-3.6,0-5.3,2.8-5.3,5.2v0c0,2.4,1.7,5.2,5.3,5.2c3.6,0,5.3-2.8,5.3-5.2S35.4,3,31.9,3z M32.4,10.6
		c-0.2,0-0.3,0-0.5,0c-0.2,0-0.3,0-0.5,0c-1.1-0.2-2-1.2-2-2.4c0-1.4,1.1-2.5,2.5-2.5c0,0,0,0,0,0c0,0,0,0,0,0c0,0,0,0,0,0
		c1.4,0,2.4,1.1,2.4,2.5C34.3,9.4,33.5,10.4,32.4,10.6z"/>
</g>
<g id="Layer_15">
	<path d="M60.4,9.2c-0.2,0.5-0.6,0.9-1.1,1.1c0,0-0.1,0-0.1,0.1l0,0c-0.2,0.1-0.3,0.1-0.5,0.2c-0.2,0-0.3,0-0.5,0
		c-0.2,0-0.3,0-0.5,0c-0.4-0.1-0.8-0.3-1.1-0.5c0,0,0,0,0,0c-0.1,0-0.1-0.1-0.1-0.1c-0.4-0.4-0.6-1-0.6-1.7c0-0.6,0.2-1.2,0.5-1.6
		c0.5-0.5,1.1-0.9,1.9-0.9c0,0,0,0,0,0c0.4,0,0.7,0.1,1.1,0.3c0,0,0,0,0,0c0,0,0.1,0,0.1,0.1c0.4,0.2,0.8,0.6,1,1h2.8
		c-0.5-2.4-2.6-4.1-5.2-4.1c-2.9,0-5.2,2.3-5.2,5.2c0,2.9,2.3,5.2,5.2,5.2c2.6,0,4.6-1.8,5.2-4l0-0.2H60.4z"/>
</g>
<g id="Layer_14">
	<path d="M38.4,0h2.9v13h-2.9V0z"/>
</g>
<g id="Layer_12">
	<path d="M73.7,13H71v-1c-0.3,0.5-1,1.4-2.7,1.4c-3.3,0-3.6-2.7-3.6-4V3.3h2.9v5.3c0,1.1,0.2,2,1.6,2c1.5,0,1.7-1,1.7-2V3.3h2.9V13z
		"/>
</g>
<g id="Layer_11">
	<path d="M75.8,0h2.9v13h-2.9V0z"/>
</g>
<g id="Layer_10">
	<path d="M80.8,0h2.9v3.3h1.8v3h-1.8V13h-2.9V0z"/>
</g>
<g id="Layer_9">
	<path d="M95.8,13h-2.7v-1c-0.3,0.5-1,1.4-2.7,1.4c-3.3,0-3.6-2.7-3.6-4V3.3h2.9v5.3c0,1.1,0.2,2,1.6,2c1.5,0,1.7-1,1.7-2V3.3h2.9
		V13z"/>
</g>
<g id="Layer_8">
	<path d="M9.9,5.4C9.9,4,8.8,3,7.5,3c0,0,0,0,0,0C6.1,3,5,4,5,5.4v0C5,6.6,5.9,7.5,7,7.8c0.2,0,0.3,0,0.5,0c0.2,0,0.3,0,0.5,0
		C9,7.5,9.9,6.6,9.9,5.4z"/>
</g>
<g id="Layer_7">
	<path d="M97.9,3.3h2.7v1.1c0.3-0.5,0.8-1.4,2.5-1.4v2.9H103c-1.5,0-2.2,0.5-2.2,1.9V13h-2.9V3.3z"/>
</g>
<g id="Layer_6">
	<path d="M20.6,2.9c-1.5,0-2.5,0.7-3.1,1.4V3.3h-2.7v13h2.9v-3.3v-0.9c0.4,0.4,1.2,1.2,2.9,1.2c2.8,0,4.8-2.3,4.8-5.1
		C25.4,6,24.1,2.9,20.6,2.9z M22.5,8.2c0,0.3-0.1,0.6-0.2,0.9c0,0,0,0,0,0c0,0.1-0.1,0.2-0.2,0.3c-0.4,0.6-0.9,1-1.6,1.1
		c-0.2,0-0.3,0-0.5,0c-0.2,0-0.3,0-0.5,0c-0.7-0.1-1.3-0.6-1.6-1.1c0,0,0,0,0-0.1c0-0.1-0.1-0.2-0.1-0.3c-0.1-0.3-0.2-0.6-0.2-0.9
		c0-0.7,0.3-1.3,0.7-1.7c0,0,0-0.1,0.1-0.1c0.1-0.1,0.2-0.1,0.3-0.2c0,0,0.1,0,0.1-0.1c0.1,0,0.1-0.1,0.2-0.1
		c0.4-0.2,0.8-0.3,1.2-0.3c0,0,0,0,0,0c0.5,0,0.9,0.1,1.3,0.4c0,0,0.1,0,0.1,0.1c0.1,0,0.1,0.1,0.2,0.1C22.2,6.8,22.5,7.5,22.5,8.2
		L22.5,8.2z"/>
</g>
<g id="Layer_5">
	<path d="M113.8,5.5C113.8,5.5,113.8,5.5,113.8,5.5c-0.2-0.4-0.5-0.7-0.8-1.1c-0.9-1-2.2-1.6-3.7-1.6c-3,0-5.1,2.5-5.1,5.2
		c0,2.9,2.4,5.2,5.2,5.2c1,0,2-0.3,2.8-0.9c0.8-0.6,1.5-1.4,2-2.5h-2.9c-0.2,0.3-0.5,0.5-0.8,0.6c-0.3,0.2-0.6,0.3-1.1,0.3
		c0,0,0,0,0,0c0,0,0,0,0,0c0,0-0.1,0-0.1,0c-0.1,0-0.1,0-0.2,0c-0.1,0-0.1,0-0.2,0c-0.9-0.2-1.6-0.8-1.9-1.7h4.7v0h2.7v0h0
		C114.6,7.8,114.4,6.6,113.8,5.5z M107,6.9c0.4-0.9,1.3-1.5,2.3-1.5c0,0,0,0,0,0c0.8,0,1.5,0.4,2,1c0.1,0.2,0.2,0.4,0.2,0.5H107z"/>
</g>
<g id="Layer_2">
	<path d="M4.8,8.2c0-1.4-1.1-2.4-2.4-2.4c0,0,0,0,0,0C1.1,5.8,0,6.8,0,8.2v0c0,1.2,0.8,2.1,1.9,2.4c0.2,0,0.3,0,0.5,0
		c0.2,0,0.3,0,0.5,0C4,10.3,4.8,9.4,4.8,8.2z"/>
</g>
<g id="Layer_3">
	<path d="M9.9,11c0-1.4-1.1-2.4-2.4-2.4c0,0,0,0,0,0C6.1,8.6,5,9.6,5,11v0c0,1.2,0.8,2.1,1.9,2.4c0.2,0,0.3,0,0.5,0
		c0.2,0,0.3,0,0.5,0C9,13.1,9.9,12.2,9.9,11z"/>
</g>
</svg>
