<?xml version="1.0" encoding="utf-8"?>
<!-- Generator: Adobe Illustrator 19.2.1, SVG Export Plug-In . SVG Version: 6.00 Build 0)  -->
<svg version="1.1" id="Layer_1" xmlns="http://www.w3.org/2000/svg" xmlns:xlink="http://www.w3.org/1999/xlink" x="0px" y="0px"
	 viewBox="0 0 192.2 67.6" style="enable-background:new 0 0 192.2 67.6;" xml:space="preserve">
<style type="text/css">
	.st0{fill:#58595B;}
	.st1{fill:none;}
	.st2{enable-background:new    ;}
</style>
<g>
	<path class="st0" d="M39.4,5.5v2.8c-2.9-1.7-5.3-2.5-7.4-2.5c-2,0-3.7,0.6-5,1.8s-2,2.7-2,4.5c0,1.3,0.4,2.4,1.2,3.5
		c0.8,1,2.4,2,4.9,3c2.5,0.9,4.3,1.7,5.5,2.4c1.2,0.6,2.1,1.5,2.9,2.7s1.2,2.8,1.2,4.7c0,2.5-0.9,4.7-2.8,6.4
		c-1.9,1.8-4.1,2.6-6.8,2.6s-5.6-1-8.5-2.9v-3c3.2,2.4,6,3.5,8.3,3.5c2,0,3.6-0.6,5-1.9c1.3-1.3,2-2.8,2-4.7c0-1.4-0.4-2.7-1.3-3.8
		c-0.8-1.1-2.5-2.2-5.1-3.2S27.1,19.6,26,19s-2-1.5-2.8-2.6s-1.1-2.5-1.1-4.3c0-2.4,0.9-4.5,2.8-6.2s4.1-2.6,6.7-2.6
		C34.4,3.4,36.9,4.1,39.4,5.5"/>
	<path class="st0" d="M66.5,34.9c4.1,0,7.6-1.4,10.4-4.2s4.3-6.3,4.3-10.4s-1.4-7.6-4.3-10.4s-6.3-4.2-10.4-4.2S58.9,7.1,56,9.9
		s-4.3,6.3-4.3,10.4s1.4,7.5,4.3,10.4C58.9,33.5,62.4,34.9,66.5,34.9 M66.4,3.4c4.9,0,9,1.6,12.4,4.9s5.1,7.3,5.1,12
		s-1.7,8.7-5.1,12s-7.6,4.9-12.4,4.9c-4.9,0-9-1.6-12.4-4.9c-3.4-3.3-5.1-7.3-5.1-12s1.7-8.8,5.1-12C57.4,5,61.5,3.4,66.4,3.4"/>
	<path class="st0" d="M108.4,34.9c4.1,0,7.6-1.4,10.4-4.2s4.3-6.3,4.3-10.4s-1.4-7.6-4.3-10.4s-6.3-4.2-10.4-4.2s-7.6,1.4-10.5,4.2
		s-4.3,6.3-4.3,10.4s1.4,7.5,4.3,10.4C100.7,33.5,104.2,34.9,108.4,34.9 M108.3,3.4c4.9,0,9,1.6,12.4,4.9s5.1,7.3,5.1,12
		s-1.7,8.7-5.1,12s-7.6,4.9-12.4,4.9c-4.9,0-9-1.6-12.4-4.9c-3.4-3.3-5.1-7.3-5.1-12s1.7-8.8,5.1-12S103.4,3.4,108.3,3.4"/>
	<path class="st0" d="M137.8,5.9v13h5.5c2.8,0,4.9-0.6,6.4-1.7s2.2-2.7,2.2-4.8c0-2-0.8-3.6-2.2-4.8s-3.7-1.7-6.5-1.7
		C143.2,5.9,137.8,5.9,137.8,5.9z M135.3,3.8h8.5c3.6,0,6.3,0.8,8.1,2.3c1.9,1.5,2.8,3.6,2.8,6.2c0,3.8-2.1,6.5-6.3,8.1
		c1.1,0.5,2.6,2.2,4.4,5l7.5,11.4h-3l-5.8-9.1c-1.9-3-3.4-4.9-4.5-5.7s-2.6-1.1-4.7-1.1h-4.5v15.9h-2.6v-33H135.3z"/>
	<rect x="167.4" y="3.8" class="st0" width="2.6" height="33.1"/>
	<rect x="63.5" y="47.3" class="st1" width="64.9" height="17"/>
	<g class="st2">
		<path class="st0" d="M75.3,54.8c1.8,0.1,3.1,0.6,4,1.3s1.3,1.7,1.3,2.9c0,1-0.3,1.9-0.9,2.6s-1.4,1.2-2.3,1.4s-2.2,0.3-3.7,0.3
			h-6.2v-0.5h0.6c0.7,0,1.2-0.1,1.4-0.3s0.4-0.4,0.5-0.8s0.1-1.2,0.1-2.5v-7.7c0-1.3,0-2.1-0.1-2.5s-0.2-0.6-0.5-0.8S68.8,48,68,48
			h-0.3v-0.5l2.6-0.1l3-0.1c4.3,0,6.5,1.2,6.5,3.8c0,1-0.4,1.9-1.1,2.5S76.8,54.6,75.3,54.8z M72.4,54.6c0.2,0,0.4,0,0.5,0
			c1.7,0,2.8-0.3,3.5-0.8s0.9-1.4,0.9-2.6c0-0.8-0.1-1.5-0.4-1.9s-0.6-0.8-1.1-1s-1.3-0.4-2.5-0.4c-0.3,0-0.6,0-0.9,0V54.6z
			 M72.4,55.2v3.5c0,1.5,0,2.5,0.1,2.9s0.2,0.7,0.4,0.9s0.7,0.3,1.4,0.3c1.2,0,2.2-0.3,2.8-1s0.9-1.6,0.9-2.9c0-1.3-0.4-2.3-1.1-2.9
			s-2-0.9-3.7-0.9C73,55.2,72.7,55.2,72.4,55.2z"/>
		<path class="st0" d="M92.4,57.5h-6l-0.4,1C85.3,60,85,60.9,85,61.4c0,0.5,0.2,0.8,0.5,1.1s0.7,0.4,1.2,0.4v0.5H82v-0.5
			c0.7-0.1,1.2-0.4,1.6-0.7s0.8-1.2,1.2-2.4c0-0.1,0.2-0.6,0.6-1.4l4.6-11h0.5l5.3,12.6l0.7,1.7c0.2,0.4,0.4,0.7,0.7,0.9
			s0.7,0.3,1.2,0.4v0.5h-6.2v-0.5c0.8,0,1.3-0.1,1.6-0.2s0.4-0.3,0.4-0.7c0-0.2-0.2-0.7-0.5-1.5L92.4,57.5z M92.2,57l-2.8-6.8
			L86.6,57H92.2z"/>
		<path class="st0" d="M113.5,58.7l-0.1,4.7H99.9v-0.5h0.5c0.7,0,1.2-0.1,1.4-0.3s0.4-0.4,0.5-0.8s0.1-1.2,0.1-2.5v-7.8
			c0-1.3,0-2.1-0.1-2.4s-0.2-0.6-0.5-0.8s-0.8-0.2-1.6-0.2h-0.4v-0.5h7.6V48h-0.7c-0.8,0-1.3,0.1-1.5,0.2s-0.4,0.4-0.5,0.7
			s-0.1,1.2-0.1,2.5v8.3c0,1.1,0,1.9,0.1,2.2s0.2,0.5,0.5,0.7s0.9,0.2,1.8,0.2h1.2c1,0,1.7-0.1,2.2-0.3s0.9-0.5,1.3-1.1
			s0.8-1.5,1.2-2.8H113.5z"/>
		<path class="st0" d="M115.3,48v-0.5h7.3V48h-0.3c-0.8,0-1.3,0.1-1.5,0.2s-0.4,0.4-0.5,0.7s-0.1,1.2-0.1,2.5v7.8
			c0,1.2,0,2.1,0.1,2.5s0.2,0.7,0.5,0.9s0.7,0.3,1.5,0.3h0.5v0.5h-7.3v-0.5h0.5c0.7,0,1.2-0.1,1.4-0.3s0.4-0.4,0.5-0.8
			s0.1-1.2,0.1-2.5v-7.8c0-1.3,0-2.1-0.1-2.4s-0.2-0.6-0.5-0.8s-0.8-0.2-1.6-0.2H115.3z"/>
	</g>
</g>
</svg>
