<?xml version="1.0" encoding="utf-8"?>
<!-- Generator: Adobe Illustrator 24.2.1, SVG Export Plug-In . SVG Version: 6.00 Build 0)  -->
<svg version="1.1" id="Layer_1" xmlns="http://www.w3.org/2000/svg" xmlns:xlink="http://www.w3.org/1999/xlink" x="0px" y="0px"
	 viewBox="0 0 192.2 67.6" style="enable-background:new 0 0 192.2 67.6;" xml:space="preserve">
<style type="text/css">
	.st0{fill:#58595B;}
</style>
<g>
	<g>
		<path class="st0" d="M56.6,14V16c-2-1.2-3.7-1.7-5.1-1.7s-2.5,0.4-3.5,1.3c-0.8,0.8-1.4,1.9-1.4,3.1c0,0.8,0.3,1.7,0.8,2.4
			c0.5,0.7,1.7,1.4,3.5,2.1c1.7,0.6,3,1.2,3.9,1.7c0.8,0.4,1.5,1,2,1.9c0.5,0.8,0.8,1.9,0.8,3.4c0,1.7-0.6,3.4-1.9,4.5
			c-1.5,0.9-3,1.5-4.9,1.5c-1.9,0-3.9-0.7-5.9-2V32c2.2,1.7,4.2,2.4,5.8,2.4c1.4,0,2.4-0.4,3.5-1.3c0.8-0.8,1.4-1.9,1.4-3.4
			c0-0.9-0.3-1.9-0.8-2.7c-0.5-0.7-1.7-1.5-3.6-2.2c-1.8-0.6-3.1-1.3-3.9-1.7c-0.7-0.4-1.4-1.1-1.9-1.8c-0.5-0.7-0.7-1.7-0.7-3
			c0-1.7,0.6-3.1,1.9-4.3c1.3-1.2,2.9-1.8,4.7-1.8C53.2,12.5,54.9,13.1,56.6,14"/>
		<path class="st0" d="M75.4,34.5c2.9,0,5.2-0.9,7.2-2.9c1.9-1.9,3-4.4,3-7.2S84.8,19,82.7,17s-4.4-2.9-7.2-2.9S70.3,15,68.3,17
			s-3,4.4-3,7.2s0.9,5.2,3,7.2C70.2,33.5,72.6,34.5,75.4,34.5 M75.4,12.5c3.5,0,6.2,1,8.7,3.5c2.4,2.3,3.6,5,3.6,8.4
			s-1.2,6.1-3.6,8.4c-2.3,2.2-5.2,3.4-8.7,3.4c-3.5,0-6.3-1-8.7-3.5c-2.3-2.4-3.6-5-3.6-8.4s1.2-6.1,3.6-8.4
			C69.1,13.6,72,12.5,75.4,12.5"/>
		<path class="st0" d="M104.7,34.5c2.9,0,5.2-0.9,7.2-2.9c1.9-1.9,3-4.4,3-7.2s-0.9-5.2-3-7.2s-4.4-2.9-7.2-2.9
			c-2.9,0-5.2,0.9-7.2,2.9s-3,4.4-3,7.2s0.9,5.2,3,7.2C99.4,33.5,101.7,34.5,104.7,34.5 M104.6,12.5c3.5,0,6.2,1,8.7,3.5
			c2.4,2.3,3.6,5,3.6,8.4s-1.2,6.1-3.6,8.4c-2.3,2.2-5.2,3.5-8.7,3.5s-6.3-1-8.7-3.5c-2.3-2.4-3.6-5-3.6-8.4s1.2-6.1,3.6-8.4
			C98.2,13.7,101.1,12.5,104.6,12.5"/>
		<path class="st0" d="M125.2,14.2v9.1h3.9c1.9,0,3.5-0.4,4.5-1.2c1-0.8,1.5-1.9,1.5-3.4s-0.5-2.4-1.5-3.4c-0.9-0.8-2.5-1.2-4.5-1.2
			C128.8,14.2,125.2,14.2,125.2,14.2z M123.4,12.8h5.9c2.4,0,4.4,0.5,5.7,1.6c1.3,1.1,1.9,2.4,1.9,4.3c0,2.7-1.5,4.5-4.4,5.7
			c0.7,0.3,1.8,1.5,3.1,3.5l5.2,8h-2l-4.1-6.3c-1.3-2.1-2.3-3.5-3.1-4c-0.7-0.5-1.8-0.7-3.4-0.7h-3.1v11h-1.8L123.4,12.8
			C123.3,12.8,123.4,12.8,123.4,12.8z"/>
		<rect x="145.7" y="12.8" class="st0" width="1.8" height="23.1"/>
	</g>
	<g>
		<polygon class="st0" points="66.8,42.9 66.8,54.2 66,54.2 66,48.8 58.5,48.8 58.5,54.2 57.5,54.2 57.5,42.9 58.5,42.9 58.5,48.2 
			66,48.2 66,42.9 		"/>
		<rect x="69.9" y="42.9" class="st0" width="0.8" height="11.3"/>
		<polygon class="st0" points="95.3,42.9 95.3,54.2 94.4,54.2 94.4,48.8 86.8,48.8 86.8,54.2 85.9,54.2 85.9,42.9 86.8,42.9 
			86.8,48.2 94.4,48.2 94.4,42.9 		"/>
		<polygon class="st0" points="104.1,42.9 104.1,53.5 109.7,53.5 109.7,54.2 103.1,54.2 103.1,42.9 		"/>
		<rect x="111.3" y="42.9" class="st0" width="0.8" height="11.3"/>
		<polygon class="st0" points="125.3,42.9 125.3,54.2 124.6,54.2 115.9,44.3 115.9,54.2 115.2,54.2 115.2,42.9 115.8,42.9 
			124.5,52.8 124.5,42.9 		"/>
		<polygon class="st0" points="128.2,42.9 128.2,54.2 134.7,54.2 134.7,53.5 129.1,53.5 129.1,48.9 134.4,48.9 134.4,48.2 
			129.1,48.2 129.1,43.7 134.5,43.7 134.5,42.9 		"/>
		<path class="st0" d="M83.1,43.7v0.9c-1.3-0.7-2.7-1-4.1-1c-1.5,0-2.7,0.5-3.6,1.5C74.6,46,74,47.3,74,48.7c0,1.5,0.5,2.7,1.4,3.6
			c0.9,0.9,2.2,1.4,3.9,1.4c1.2,0,2.2-0.2,3.1-0.7v-3.1H80v-0.6h3.4v4.3c-1.3,0.6-2.6,1-4.1,1c-1.7,0-3.3-0.5-4.4-1.7
			c-1.2-1-1.7-2.4-1.7-4.2c0-1.7,0.5-3.1,1.7-4.1s2.6-1.7,4.4-1.7C80.5,42.7,81.7,43.1,83.1,43.7"/>
	</g>
</g>
</svg>
